<svg width="247" height="85" viewBox="0 0 247 85" fill="none" xmlns="http://www.w3.org/2000/svg">
<path d="M203.385 33.3628C203.179 33.9181 202.957 34.4634 202.718 34.9988H157.418C157.177 34.4654 156.955 33.9201 156.751 33.3628H203.385ZM191.558 46.8368C192.266 46.4661 192.951 46.0661 193.613 45.6368H166.522C167.189 46.0688 167.873 46.4688 168.574 46.8368H191.558ZM158.119 36.4208C158.392 36.9414 158.686 37.4558 158.999 37.9638H201.139C201.448 37.4658 201.741 36.9514 202.019 36.4208H158.119ZM160.042 39.4888C160.4 39.9761 160.774 40.4494 161.165 40.9088H198.972C199.361 40.4488 199.737 39.9828 200.095 39.4888H160.042ZM162.702 42.5568C163.168 43.0138 163.649 43.4488 164.149 43.8688H195.978C196.478 43.4488 196.962 43.0138 197.425 42.5568H162.702ZM155.239 24.8288C155.239 25.2608 155.239 25.6928 155.273 26.1188H204.86C204.882 25.6928 204.891 25.2608 204.891 24.8288V24.1618H155.239V24.8288ZM200.897 11.3228C198.645 7.84765 195.558 4.99122 191.92 3.0136C188.281 1.03598 184.206 0 180.064 0C175.923 0 171.848 1.03598 168.209 3.0136C164.571 4.99122 161.485 7.84765 159.232 11.3228H200.897ZM155.856 30.2978C155.989 30.8838 156.143 31.4678 156.316 32.0388H203.845C204.018 31.4678 204.172 30.8848 204.305 30.2978H155.856ZM173.244 48.6978C177.71 49.9652 182.441 49.9652 186.907 48.6978H173.244ZM157.282 14.9588C156.961 15.7014 156.675 16.4618 156.424 17.2398H203.709C203.461 16.4655 203.175 15.7043 202.851 14.9588H157.282ZM158.874 11.8908C158.403 12.6643 157.974 13.4628 157.59 14.2828H202.545C202.161 13.4621 201.731 12.6635 201.258 11.8908H158.874ZM156.186 18.0268C155.98 18.7408 155.809 19.4608 155.674 20.1868H204.459C204.319 19.4534 204.149 18.7334 203.95 18.0268H156.186ZM155.359 27.2268C155.416 27.8441 155.499 28.4614 155.606 29.0788H204.527C204.632 28.4614 204.715 27.8441 204.777 27.2268H155.359ZM155.523 21.0908C155.423 21.7698 155.347 22.4608 155.301 23.1558H204.839C204.793 22.4618 204.719 21.7698 204.617 21.0908H155.523Z" fill="url(#paint0_linear_2_111)"/>
<path d="M20.9 20.5398V35.0478H5.744V20.5578H0V55.5928H5.8V41.0658H21.011V55.5958H26.8V20.5178L20.9 20.5398Z" fill="white"/>
<path d="M56.877 20.3727H56.788C52.088 20.3727 47.5804 22.2398 44.257 25.5632C40.9336 28.8867 39.0665 33.3942 39.0665 38.0942C39.0665 42.7943 40.9336 47.3018 44.257 50.6252C47.5804 53.9487 52.088 55.8157 56.788 55.8157H56.84C61.54 55.8206 66.0495 53.9583 69.3764 50.6383C72.7033 47.3184 74.5751 42.8128 74.58 38.1127C74.5849 33.4127 72.7225 28.9032 69.4026 25.5763C66.0826 22.2494 61.577 20.3776 56.877 20.3727ZM56.877 50.4457H56.855C54.4124 50.4315 52.0287 49.6941 50.0047 48.3265C47.9808 46.9589 46.4073 45.0224 45.4828 42.7615C44.5583 40.5005 44.3242 38.0163 44.8101 35.6225C45.296 33.2286 46.4801 31.0323 48.213 29.3107C49.3451 28.1536 50.7006 27.2388 52.1973 26.6218C53.6939 26.0048 55.3003 25.6986 56.919 25.7217C58.5425 25.7236 60.1498 26.0452 61.649 26.6682C63.1483 27.2912 64.5101 28.2034 65.6569 29.3527C66.8036 30.502 67.7127 31.8659 68.3323 33.3666C68.9519 34.8672 69.2698 36.4752 69.268 38.0987C69.2662 39.7223 68.9446 41.3295 68.3216 42.8288C67.6986 44.328 66.7864 45.6899 65.6371 46.8366C64.4877 47.9833 63.1238 48.8924 61.6232 49.512C60.1225 50.1316 58.5145 50.4496 56.891 50.4477L56.877 50.4457Z" fill="white"/>
<path d="M102.723 41.2298C103.007 41.1838 103.291 41.1368 103.569 41.0658C105.416 40.6882 107.125 39.8148 108.512 38.5392C109.9 37.2636 110.914 35.6341 111.445 33.8258C111.838 32.5023 111.935 31.1088 111.73 29.7436C111.524 28.3785 111.022 27.0751 110.257 25.9258C109.402 24.5684 108.254 23.4187 106.899 22.5602C105.543 21.7017 104.014 21.156 102.421 20.9628C99.5767 20.6949 96.7187 20.602 93.863 20.6848C93.388 20.6848 86.99 20.6628 86.99 20.6628V55.3988H92.32V26.3908H94.558C97.126 26.3908 99.552 26.3688 102.008 26.4368C102.782 26.4522 103.544 26.6376 104.239 26.9798C105.035 27.4199 105.672 28.0995 106.06 28.9222C106.447 29.7449 106.566 30.6688 106.399 31.5628C106.304 32.4919 105.941 33.3735 105.356 34.1011C104.77 34.8287 103.986 35.3711 103.099 35.6628C102.419 35.9236 101.703 36.0777 100.976 36.1198C99.164 36.2468 92.927 36.1758 92.927 36.1758C92.927 36.1758 101.282 49.3758 105.013 54.5268C105.223 54.787 105.482 55.0029 105.776 55.1618C106.071 55.3208 106.393 55.4197 106.726 55.4528C107.365 55.4928 107.998 55.5048 108.667 55.5048H112.417C112.417 55.5048 102.681 41.2358 102.723 41.2298Z" fill="white"/>
<path d="M169.073 20.7978H145.805V26.1028H160.172L144.833 55.3518H168.06V50.0868H153.746L169.073 20.7978Z" fill="white"/>
<path d="M130.633 20.7948H125.457V55.4108H130.633V20.7948Z" fill="white"/>
<path d="M233.924 36.1158L217.511 18.7828V56.7828H223.184V33.2268L246.559 58.3888V49.4608L233.924 36.1158Z" fill="white"/>
<path d="M246.559 18.3628H240.899V41.0778H246.559V18.3628Z" fill="white"/>
<path d="M205.546 76.3358L204.966 76.2468C204.305 76.1603 203.649 76.0334 203.003 75.8668C202.625 75.8015 202.28 75.6102 202.025 75.3242C201.769 75.0382 201.618 74.6741 201.595 74.2912C201.573 73.9083 201.681 73.529 201.901 73.215C202.121 72.9011 202.441 72.6708 202.809 72.5618C203.708 72.1315 204.739 72.0684 205.684 72.3857C206.629 72.7031 207.413 73.376 207.87 74.2618L207.97 74.4318L209.905 73.3318L209.775 73.1318C209.645 72.9588 209.522 72.7858 209.405 72.6168C209.166 72.2534 208.892 71.9144 208.587 71.6048C207.55 70.739 206.261 70.2335 204.912 70.1645C203.563 70.0954 202.229 70.4664 201.109 71.2218C200.576 71.5766 200.142 72.061 199.848 72.6295C199.554 73.1979 199.409 73.8319 199.427 74.4718C199.471 75.0865 199.673 75.6793 200.014 76.193C200.355 76.7067 200.822 77.1237 201.371 77.4038C202.055 77.7405 202.782 77.9814 203.531 78.1198C203.763 78.1718 203.994 78.2198 204.222 78.2838C204.531 78.3668 204.87 78.4228 205.188 78.4778C205.598 78.5352 206.004 78.6238 206.401 78.7428C206.74 78.8302 207.043 79.0199 207.27 79.2863C207.497 79.5526 207.636 79.8824 207.669 80.2308C207.712 80.8478 207.36 81.3538 206.583 81.7738C206.104 82.0336 205.578 82.1948 205.036 82.2479C204.494 82.3009 203.946 82.2448 203.426 82.0828C202.97 81.9916 202.549 81.777 202.207 81.4624C201.865 81.1477 201.616 80.7452 201.488 80.2988L201.417 80.0458L199.383 81.1968L199.5 81.4278C199.6 81.5758 199.651 81.6587 199.741 81.8077C199.94 82.1375 200.171 82.4476 200.429 82.7338C200.97 83.2687 201.612 83.6902 202.318 83.9737C203.024 84.2572 203.779 84.397 204.54 84.3848H204.614C205.375 84.4045 206.133 84.2739 206.844 84.0006C207.554 83.7273 208.204 83.3165 208.756 82.7918C209.382 82.1952 209.762 81.3851 209.819 80.522C209.876 79.6589 209.607 78.8058 209.065 78.1318C208.174 77.0929 206.91 76.4475 205.546 76.3358Z" fill="white"/>
<path d="M36.653 84.1688H45.68V82.0858H38.804V78.3078H44.078V76.1478H38.813V72.4288H45.693V70.3668H36.653V84.1688Z" fill="white"/>
<path d="M103.837 78.3108H109.087V76.1508H103.843V72.4318H110.701V70.3418H101.711V84.1678H110.711V82.0878H103.835L103.837 78.3108Z" fill="white"/>
<path d="M79.548 70.3087H77.977L77.925 70.4357C77.24 72.1147 76.357 74.2567 76.052 74.9357L74.432 78.5157L73.953 79.5638C73.888 79.4338 73.833 79.3258 73.783 79.2148C72.883 77.2208 71.183 73.4308 69.894 70.4648L69.838 70.3418H67.447L73.956 84.8168L80.502 70.2838H80.193L79.548 70.3087Z" fill="white"/>
<path d="M167.504 70.3698V72.4698H172.104V84.1978H174.264V72.4498H178.847V70.3698H167.504Z" fill="white"/>
<path d="M133.713 69.9408V84.1838H135.839V75.3538L144.601 84.7858V81.4398L133.713 69.9408Z" fill="white"/>
<path d="M144.601 69.7838H142.478V78.2988H144.601V69.7838Z" fill="white"/>
<defs>
<linearGradient id="paint0_linear_2_111" x1="180.065" y1="0" x2="180.065" y2="49.6484" gradientUnits="userSpaceOnUse">
<stop stop-color="#FFCA61"/>
<stop offset="0.25" stop-color="#FF6B11"/>
<stop offset="0.58" stop-color="#CE3730"/>
<stop offset="0.86" stop-color="#AB1147"/>
<stop offset="1" stop-color="#9E034F"/>
</linearGradient>
</defs>
</svg>
